<?xml version="1.0" standalone="no"?>
<!DOCTYPE svg PUBLIC "-//W3C//DTD SVG 20010904//EN"
 "http://www.w3.org/TR/2001/REC-SVG-20010904/DTD/svg10.dtd">
<svg version="1.0" xmlns="http://www.w3.org/2000/svg"
 width="1053.000000pt" height="1056.000000pt" viewBox="0 0 1053.000000 1056.000000"
 preserveAspectRatio="xMidYMid meet">

<g transform="translate(0.000000,1056.000000) scale(0.100000,-0.100000)"
fill="#000000" stroke="none">
<path d="M4700 8151 c-199 -40 -333 -108 -470 -238 -63 -59 -162 -191 -191
-255 -7 -16 -20 -28 -29 -28 -9 0 -58 20 -108 45 l-92 44 6 -27 c17 -71 54
-116 129 -158 24 -14 23 -28 -1 -114 -22 -78 -24 -238 -5 -320 49 -207 206
-373 401 -425 127 -34 317 -11 456 55 62 30 84 32 84 7 0 -22 56 -47 104 -47
63 0 115 29 172 95 26 30 49 53 51 51 2 -2 -5 -32 -16 -67 -12 -34 -21 -66
-21 -71 0 -4 42 -8 94 -8 l93 0 23 63 c13 34 33 85 45 112 12 28 30 73 40 100
40 111 167 230 196 184 9 -16 3 -51 -17 -93 -8 -16 -14 -33 -14 -39 0 -5 -7
-23 -15 -40 -33 -72 -68 -175 -72 -213 -4 -37 -2 -44 24 -61 63 -44 154 -35
206 20 16 18 50 67 75 110 l46 79 19 -51 c25 -66 73 -120 137 -155 147 -80
370 -9 370 118 0 52 -10 57 -42 21 -75 -86 -213 -66 -278 40 -33 53 -24 62 72
67 99 5 148 31 195 102 79 118 30 258 -99 285 -66 15 -75 14 -146 -10 -121
-41 -232 -203 -232 -339 0 -40 -8 -59 -46 -116 -25 -37 -53 -74 -62 -81 -19
-14 -52 -17 -52 -5 0 17 30 104 60 173 59 136 100 260 100 299 0 50 -35 80
-94 80 -52 0 -90 -20 -170 -92 -36 -32 -67 -58 -69 -58 -7 0 -4 15 13 68 12
38 11 45 -3 59 -19 20 -107 29 -134 14 -25 -13 -52 -70 -104 -213 -48 -136
-66 -170 -124 -238 -61 -71 -111 -108 -127 -92 -8 8 -3 31 21 90 17 43 31 82
31 85 0 4 8 26 19 50 29 66 48 115 81 206 39 111 29 131 -67 131 -39 0 -50 -5
-77 -33 -17 -19 -39 -58 -50 -88 -58 -171 -119 -306 -154 -342 -59 -61 -139
-97 -269 -118 -215 -35 -389 97 -424 322 -14 87 -7 257 13 314 12 36 17 40 43
38 350 -26 501 -9 681 79 113 55 124 61 124 70 0 5 6 8 13 8 18 0 123 113 147
159 22 45 27 140 10 202 -14 50 -79 121 -140 153 -107 56 -228 68 -380 37z
m259 -118 c47 -36 65 -79 64 -155 -1 -53 -7 -77 -26 -111 -77 -131 -291 -206
-588 -207 -142 0 -156 8 -115 70 14 22 26 42 26 45 0 4 21 36 46 73 55 77 168
189 239 236 124 81 281 102 354 49z m1280 -797 c21 -26 25 -84 7 -130 -25 -66
-56 -89 -126 -94 l-60 -4 0 53 c0 66 26 125 69 162 36 30 91 36 110 13z"/>
<path d="M5227 7679 c7 -7 15 -10 18 -7 3 3 -2 9 -12 12 -14 6 -15 5 -6 -5z"/>
<path d="M5186 7608 c9 -14 -7 -30 -19 -19 -17 13 -15 -86 2 -120 34 -70 141
-63 171 11 15 35 8 68 -20 100 -16 19 -35 26 -80 30 -32 3 -56 2 -54 -2z"/>
<path d="M5500 6910 c0 -5 5 -10 11 -10 5 0 7 5 4 10 -3 6 -8 10 -11 10 -2 0
-4 -4 -4 -10z"/>
<path d="M6265 6900 c3 -5 8 -10 11 -10 2 0 4 5 4 10 0 6 -5 10 -11 10 -5 0
-7 -4 -4 -10z"/>
<path d="M5470 6830 c0 -5 5 -10 11 -10 5 0 7 5 4 10 -3 6 -8 10 -11 10 -2 0
-4 -4 -4 -10z"/>
<path d="M5885 6770 c3 -5 8 -10 11 -10 2 0 4 5 4 10 0 6 -5 10 -11 10 -5 0
-7 -4 -4 -10z"/>
<path d="M1965 6428 c-4 -13 -15 -41 -25 -63 -10 -22 -47 -116 -83 -210 -36
-93 -113 -290 -171 -437 -58 -146 -106 -270 -106 -273 0 -4 -7 -21 -15 -38
-32 -72 -105 -266 -105 -283 0 -8 42 -11 141 -10 160 1 144 -8 184 101 15 39
35 90 45 115 10 25 24 60 30 78 l13 32 224 -2 225 -3 28 -65 c15 -36 42 -103
60 -150 18 -47 39 -90 46 -96 9 -7 66 -11 150 -12 l136 0 -7 26 c-6 26 -63
174 -90 237 -14 32 -141 352 -202 510 -35 90 -168 430 -202 515 l-17 45 -126
3 c-124 3 -127 2 -133 -20z m154 -440 c51 -115 108 -288 98 -295 -6 -4 -62 -7
-124 -7 -134 -1 -129 -8 -79 128 18 50 43 119 56 154 12 34 24 62 26 62 2 0
12 -19 23 -42z"/>
<path d="M2469 6403 c69 -176 153 -394 213 -553 38 -102 103 -268 143 -370 40
-102 88 -223 106 -270 17 -47 36 -87 40 -90 12 -8 197 -12 220 -5 11 4 25 19
31 33 15 38 35 88 133 342 48 124 99 257 114 295 16 39 49 124 74 190 25 66
72 190 105 275 32 85 62 165 66 178 l7 22 -145 0 -145 0 -20 -55 c-12 -31 -21
-58 -21 -61 0 -3 -7 -20 -15 -37 -8 -18 -27 -68 -43 -112 -79 -225 -238 -645
-243 -645 -3 0 -31 71 -63 158 -32 86 -70 191 -85 232 -58 157 -133 358 -163
438 l-31 82 -148 0 -149 0 19 -47z"/>
<path d="M3767 6443 c-4 -3 -7 -26 -7 -50 0 -23 -5 -43 -10 -43 -7 0 -6 -9 2
-22 10 -18 14 -159 18 -618 l5 -595 450 0 450 0 0 120 0 120 -270 2 c-148 1
-289 2 -313 3 l-43 0 3 158 3 157 45 2 c25 1 138 2 253 2 l207 1 0 120 0 120
-255 0 -255 0 0 145 0 145 295 0 295 0 0 120 0 120 -433 0 c-239 0 -437 -3
-440 -7z"/>
<path d="M4802 5783 l3 -668 135 -1 c83 0 138 3 142 10 4 5 5 198 3 428 -3
257 -1 418 5 418 5 0 15 -10 21 -22 6 -12 16 -27 21 -32 17 -21 138 -201 145
-216 4 -8 9 -17 13 -20 4 -3 31 -40 61 -83 30 -43 85 -122 122 -175 37 -53 75
-108 85 -122 16 -24 121 -171 129 -179 6 -7 226 -12 256 -5 l27 6 -2 661 -3
662 -137 3 -138 3 0 -431 c0 -261 -4 -429 -9 -425 -5 3 -44 58 -86 123 -43 64
-81 119 -86 120 -5 2 -9 8 -9 13 0 7 -49 79 -259 376 -28 39 -51 76 -51 81 0
6 -4 12 -8 14 -5 2 -28 31 -52 66 l-44 62 -143 0 -143 0 2 -667z"/>
<path d="M6150 5786 c0 -624 1 -665 18 -670 29 -9 251 -5 257 5 5 6 8 867 5
1277 l0 52 -140 0 -140 0 0 -664z"/>
<path d="M6616 6442 c-3 -5 -4 -306 -3 -668 l2 -659 250 1 c272 1 362 12 498
61 256 92 402 312 401 608 0 164 -41 295 -130 411 -21 27 -49 58 -63 69 -14
11 -34 28 -43 38 -10 9 -20 17 -23 17 -3 0 -24 12 -46 26 -125 79 -270 104
-595 104 -134 0 -245 -4 -248 -8z m542 -248 c91 -19 157 -52 212 -107 83 -84
121 -226 101 -375 -25 -189 -119 -296 -293 -337 -61 -14 -263 -23 -274 -12 -4
4 -9 786 -5 835 1 18 164 16 259 -4z"/>
<path d="M6955 6150 c3 -5 8 -10 11 -10 2 0 4 5 4 10 0 6 -5 10 -11 10 -5 0
-7 -4 -4 -10z"/>
<path d="M8265 6408 c-35 -81 -44 -103 -90 -223 -156 -402 -237 -609 -251
-642 -8 -17 -14 -34 -14 -38 0 -3 -34 -90 -75 -193 -54 -136 -71 -188 -62
-194 7 -4 72 -7 145 -6 l133 1 14 31 c8 17 28 67 44 111 16 44 39 103 49 130
l20 50 226 3 c208 2 226 1 235 -16 5 -9 32 -80 61 -157 28 -77 56 -142 62
-146 13 -9 274 -6 283 3 6 5 -9 47 -56 153 -5 11 -20 52 -34 90 -14 39 -32 84
-39 100 -14 32 -134 339 -268 685 -44 113 -89 226 -100 253 l-21 47 -122 0
-121 0 -19 -42z m209 -547 c31 -85 56 -158 56 -162 0 -13 -87 -11 -95 1 -4 7
-11 6 -19 -2 -12 -13 -121 -16 -133 -5 -3 3 5 32 16 64 12 32 37 102 56 156
39 111 44 122 55 110 5 -4 33 -77 64 -162z"/>
<path d="M8365 5770 c3 -5 8 -10 11 -10 2 0 4 5 4 10 0 6 -5 10 -11 10 -5 0
-7 -4 -4 -10z"/>
<path d="M2310 6371 c0 -5 5 -13 10 -16 6 -3 10 -2 10 4 0 5 -4 13 -10 16 -5
3 -10 2 -10 -4z"/>
<path d="M8615 6370 c3 -5 8 -10 11 -10 2 0 4 5 4 10 0 6 -5 10 -11 10 -5 0
-7 -4 -4 -10z"/>
<path d="M4690 6332 c0 -12 19 -26 26 -19 2 2 -2 10 -11 17 -9 8 -15 8 -15 2z"/>
<path d="M2850 6316 c0 -2 7 -9 15 -16 13 -11 14 -10 9 4 -5 14 -24 23 -24 12z"/>
<path d="M2330 6301 c0 -5 7 -15 17 -22 15 -13 15 -12 4 9 -12 23 -21 28 -21
13z"/>
<path d="M4695 6270 c3 -5 8 -10 11 -10 2 0 4 5 4 10 0 6 -5 10 -11 10 -5 0
-7 -4 -4 -10z"/>
<path d="M2370 6211 c0 -6 4 -13 10 -16 6 -3 7 1 4 9 -7 18 -14 21 -14 7z"/>
<path d="M8670 6216 c0 -2 8 -10 18 -17 15 -13 16 -12 3 4 -13 16 -21 21 -21
13z"/>
<path d="M2910 6156 c0 -2 8 -10 18 -17 15 -13 16 -12 3 4 -13 16 -21 21 -21
13z"/>
<path d="M4275 6150 c3 -5 8 -10 11 -10 2 0 4 5 4 10 0 6 -5 10 -11 10 -5 0
-7 -4 -4 -10z"/>
<path d="M4585 6150 c3 -5 8 -10 11 -10 2 0 4 5 4 10 0 6 -5 10 -11 10 -5 0
-7 -4 -4 -10z"/>
<path d="M2400 6133 c0 -6 8 -17 18 -24 16 -13 16 -13 2 6 -8 11 -16 22 -17
24 -2 2 -3 0 -3 -6z"/>
<path d="M8716 6117 c3 -10 9 -15 12 -12 3 3 0 11 -7 18 -10 9 -11 8 -5 -6z"/>
<path d="M4100 6090 c0 -5 5 -10 11 -10 5 0 7 5 4 10 -3 6 -8 10 -11 10 -2 0
-4 -4 -4 -10z"/>
<path d="M2951 6063 c7 -12 15 -20 18 -17 3 2 -3 12 -13 22 -17 16 -18 16 -5
-5z"/>
<path d="M3635 6050 c3 -5 8 -10 11 -10 2 0 4 5 4 10 0 6 -5 10 -11 10 -5 0
-7 -4 -4 -10z"/>
<path d="M8740 6040 c0 -5 5 -10 11 -10 5 0 7 5 4 10 -3 6 -8 10 -11 10 -2 0
-4 -4 -4 -10z"/>
<path d="M4105 6030 c3 -5 8 -10 11 -10 2 0 4 5 4 10 0 6 -5 10 -11 10 -5 0
-7 -4 -4 -10z"/>
<path d="M2970 5990 c0 -5 5 -10 11 -10 5 0 7 5 4 10 -3 6 -8 10 -11 10 -2 0
-4 -4 -4 -10z"/>
<path d="M2995 5960 c3 -5 8 -10 11 -10 2 0 4 5 4 10 0 6 -5 10 -11 10 -5 0
-7 -4 -4 -10z"/>
<path d="M3006 5907 c3 -10 9 -15 12 -12 3 3 0 11 -7 18 -10 9 -11 8 -5 -6z"/>
<path d="M3030 5831 c0 -5 5 -13 10 -16 6 -3 10 -2 10 4 0 5 -4 13 -10 16 -5
3 -10 2 -10 -4z"/>
<path d="M3520 5770 c0 -5 5 -10 11 -10 5 0 7 5 4 10 -3 6 -8 10 -11 10 -2 0
-4 -4 -4 -10z"/>
<path d="M3075 5730 c10 -11 20 -20 23 -20 3 0 -3 9 -13 20 -10 11 -20 20 -23
20 -3 0 3 -9 13 -20z"/>
<path d="M3505 5730 c3 -5 11 -10 16 -10 6 0 7 5 4 10 -3 6 -11 10 -16 10 -6
0 -7 -4 -4 -10z"/>
<path d="M8880 5701 c0 -6 4 -13 10 -16 6 -3 7 1 4 9 -7 18 -14 21 -14 7z"/>
<path d="M3490 5690 c0 -5 5 -10 11 -10 5 0 7 5 4 10 -3 6 -8 10 -11 10 -2 0
-4 -4 -4 -10z"/>
<path d="M4610 5691 c0 -5 7 -12 16 -15 14 -5 15 -4 4 9 -14 17 -20 19 -20 6z"/>
<path d="M3475 5650 c3 -5 8 -10 11 -10 2 0 4 5 4 10 0 6 -5 10 -11 10 -5 0
-7 -4 -4 -10z"/>
<path d="M4150 5610 c0 -5 5 -10 11 -10 5 0 7 5 4 10 -3 6 -8 10 -11 10 -2 0
-4 -4 -4 -10z"/>
<path d="M8915 5610 c3 -5 8 -10 11 -10 2 0 4 5 4 10 0 6 -5 10 -11 10 -5 0
-7 -4 -4 -10z"/>
<path d="M4095 5600 c3 -5 11 -10 16 -10 6 0 7 5 4 10 -3 6 -11 10 -16 10 -6
0 -7 -4 -4 -10z"/>
<path d="M5135 5600 c3 -5 8 -10 11 -10 2 0 4 5 4 10 0 6 -5 10 -11 10 -5 0
-7 -4 -4 -10z"/>
<path d="M3446 5567 c3 -10 9 -15 12 -12 3 3 0 11 -7 18 -10 9 -11 8 -5 -6z"/>
<path d="M2670 5451 c0 -5 5 -13 10 -16 6 -3 10 -2 10 4 0 5 -4 13 -10 16 -5
3 -10 2 -10 -4z"/>
<path d="M8970 5456 c0 -2 8 -10 18 -17 15 -13 16 -12 3 4 -13 16 -21 21 -21
13z"/>
<path d="M3395 5440 c3 -5 8 -10 11 -10 2 0 4 5 4 10 0 6 -5 10 -11 10 -5 0
-7 -4 -4 -10z"/>
<path d="M7747 5439 c7 -7 15 -10 18 -7 3 3 -2 9 -12 12 -14 6 -15 5 -6 -5z"/>
<path d="M8550 5391 c0 -5 5 -13 10 -16 6 -3 10 -2 10 4 0 5 -4 13 -10 16 -5
3 -10 2 -10 -4z"/>
<path d="M1945 5380 c3 -5 8 -10 11 -10 2 0 4 5 4 10 0 6 -5 10 -11 10 -5 0
-7 -4 -4 -10z"/>
<path d="M5135 5380 c3 -5 8 -10 11 -10 2 0 4 5 4 10 0 6 -5 10 -11 10 -5 0
-7 -4 -4 -10z"/>
<path d="M8255 5380 c3 -5 8 -10 11 -10 2 0 4 5 4 10 0 6 -5 10 -11 10 -5 0
-7 -4 -4 -10z"/>
<path d="M2700 5371 c0 -6 4 -13 10 -16 6 -3 7 1 4 9 -7 18 -14 21 -14 7z"/>
<path d="M7705 5370 c3 -5 8 -10 11 -10 2 0 4 5 4 10 0 6 -5 10 -11 10 -5 0
-7 -4 -4 -10z"/>
<path d="M1905 5360 c3 -5 8 -10 11 -10 2 0 4 5 4 10 0 6 -5 10 -11 10 -5 0
-7 -4 -4 -10z"/>
<path d="M7685 5330 c3 -5 11 -10 16 -10 6 0 7 5 4 10 -3 6 -11 10 -16 10 -6
0 -7 -4 -4 -10z"/>
<path d="M8190 5331 c0 -5 5 -13 10 -16 6 -3 10 -2 10 4 0 5 -4 13 -10 16 -5
3 -10 2 -10 -4z"/>
<path d="M8170 5291 c0 -5 7 -11 15 -15 8 -3 15 -1 15 3 0 5 -7 11 -15 15 -8
3 -15 1 -15 -3z"/>
<path d="M2740 5275 c7 -9 15 -13 17 -11 7 7 -7 26 -19 26 -6 0 -6 -6 2 -15z"/>
<path d="M3335 5280 c3 -5 8 -10 11 -10 2 0 4 5 4 10 0 6 -5 10 -11 10 -5 0
-7 -4 -4 -10z"/>
<path d="M5130 5280 c0 -5 5 -10 11 -10 5 0 7 5 4 10 -3 6 -8 10 -11 10 -2 0
-4 -4 -4 -10z"/>
<path d="M4720 5266 c0 -2 8 -10 18 -17 15 -13 16 -12 3 4 -13 16 -21 21 -21
13z"/>
<path d="M1855 5240 c3 -5 8 -10 11 -10 2 0 4 5 4 10 0 6 -5 10 -11 10 -5 0
-7 -4 -4 -10z"/>
<path d="M3320 5240 c0 -5 5 -10 11 -10 5 0 7 5 4 10 -3 6 -8 10 -11 10 -2 0
-4 -4 -4 -10z"/>
<path d="M7605 5240 c3 -5 11 -10 16 -10 6 0 7 5 4 10 -3 6 -11 10 -16 10 -6
0 -7 -4 -4 -10z"/>
<path d="M8165 5240 c3 -5 8 -10 11 -10 2 0 4 5 4 10 0 6 -5 10 -11 10 -5 0
-7 -4 -4 -10z"/>
<path d="M4720 5206 c0 -2 7 -7 16 -10 8 -3 12 -2 9 4 -6 10 -25 14 -25 6z"/>
<path d="M8145 5200 c3 -5 11 -10 16 -10 6 0 7 5 4 10 -3 6 -11 10 -16 10 -6
0 -7 -4 -4 -10z"/>
<path d="M7540 5190 c0 -5 5 -10 11 -10 5 0 7 5 4 10 -3 6 -8 10 -11 10 -2 0
-4 -4 -4 -10z"/>
<path d="M5130 5171 c0 -5 5 -13 10 -16 6 -3 10 -2 10 4 0 5 -4 13 -10 16 -5
3 -10 2 -10 -4z"/>
<path d="M7504 5165 c8 -8 18 -15 22 -15 3 0 1 7 -6 15 -7 8 -17 15 -22 15 -5
0 -3 -7 6 -15z"/>
<path d="M1825 5160 c3 -5 8 -10 11 -10 2 0 4 5 4 10 0 6 -5 10 -11 10 -5 0
-7 -4 -4 -10z"/>
<path d="M7467 5149 c7 -7 15 -10 18 -7 3 3 -2 9 -12 12 -14 6 -15 5 -6 -5z"/>
<path d="M7420 5130 c0 -5 5 -10 11 -10 5 0 7 5 4 10 -3 6 -8 10 -11 10 -2 0
-4 -4 -4 -10z"/>
<path d="M7280 5096 c0 -2 8 -10 18 -17 15 -13 16 -12 3 4 -13 16 -21 21 -21
13z"/>
<path d="M8100 5080 c0 -5 5 -10 11 -10 5 0 7 5 4 10 -3 6 -8 10 -11 10 -2 0
-4 -4 -4 -10z"/>
<path d="M7135 5060 c3 -5 8 -10 11 -10 2 0 4 5 4 10 0 6 -5 10 -11 10 -5 0
-7 -4 -4 -10z"/>
<path d="M3977 5049 c7 -7 15 -10 18 -7 3 3 -2 9 -12 12 -14 6 -15 5 -6 -5z"/>
<path d="M5075 5050 c3 -5 8 -10 11 -10 2 0 4 5 4 10 0 6 -5 10 -11 10 -5 0
-7 -4 -4 -10z"/>
</g>
</svg>
